HIERARCHY
ROOT Hips
{
	OFFSET 0.000000 0.000000 0.000000
	CHANNELS 6 Xposition Yposition Zposition Zrotation Yrotation Xrotation 
	JOINT LHipJoint
	{
		OFFSET 0.000000 0.000000 0.000000
		CHANNELS 3 Zrotation Yrotation Xrotation
		JOINT LeftUpLeg
		{
			OFFSET 1.363060 -1.794630 0.839290
			CHANNELS 3 Zrotation Yrotation Xrotation
			JOINT LeftLeg
			{
				OFFSET 2.448110 -6.726130 0.000000
				CHANNELS 3 Zrotation Yrotation Xrotation
				JOINT LeftFoot
				{
					OFFSET 2.562200 -7.039590 0.000000
					CHANNELS 3 Zrotation Yrotation Xrotation
					JOINT LeftToeBase
					{
						OFFSET 0.157640 -0.433110 2.322550
						CHANNELS 3 Zrotation Yrotation Xrotation
						End Site
						{
							OFFSET 0.000000 0.000000 0.000000
						}
					}
				}
			}
		}
	}
	JOINT RHipJoint
	{
		OFFSET 0.000000 0.000000 0.000000
		CHANNELS 3 Zrotation Yrotation Xrotation
		JOINT RightUpLeg
		{
			OFFSET -1.305520 -1.794630 0.839290
			CHANNELS 3 Zrotation Yrotation Xrotation
			JOINT RightLeg
			{
				OFFSET -2.542530 -6.985550 0.000000
				CHANNELS 3 Zrotation Yrotation Xrotation
				JOINT RightFoot
				{
					OFFSET -2.568260 -7.056230 0.000000
					CHANNELS 3 Zrotation Yrotation Xrotation
					JOINT RightToeBase
					{
						OFFSET -0.164730 -0.452590 2.363150
						CHANNELS 3 Zrotation Yrotation Xrotation
						End Site
						{
							OFFSET 0.000000 0.000000 0.000000
						}
					}
				}
			}
		}
	}
	JOINT LowerBack
	{
		OFFSET 0.000000 0.000000 0.000000
		CHANNELS 3 Zrotation Yrotation Xrotation
		JOINT Spine
		{
			OFFSET 0.028270 2.035590 -0.193380
			CHANNELS 3 Zrotation Yrotation Xrotation
			JOINT Spine1
			{
				OFFSET 0.056720 2.048850 -0.042750
				CHANNELS 3 Zrotation Yrotation Xrotation
				JOINT Neck
				{
					OFFSET 0.000000 0.000000 0.000000
					CHANNELS 3 Zrotation Yrotation Xrotation
					JOINT Neck1
					{
						OFFSET -0.054170 1.746240 0.172020
						CHANNELS 3 Zrotation Yrotation Xrotation
						JOINT Head
						{
							OFFSET 0.104070 1.761360 -0.123970
							CHANNELS 3 Zrotation Yrotation Xrotation
							End Site
							{
								OFFSET 0.000000 0.000000 0.000000
							}
						}
					}
				}
				JOINT LeftShoulder
				{
					OFFSET 0.000000 0.000000 0.000000
					CHANNELS 3 Zrotation Yrotation Xrotation
					JOINT LeftArm
					{
						OFFSET 3.362410 1.200890 -0.311210
						CHANNELS 3 Zrotation Yrotation Xrotation
						JOINT LeftForeArm
						{
							OFFSET 4.983000 -0.000000 -0.000000
							CHANNELS 3 Zrotation Yrotation Xrotation
							JOINT LeftHand
							{
								OFFSET 3.483560 -0.000000 -0.000000
								CHANNELS 3 Zrotation Yrotation Xrotation
								JOINT LeftFingerBase
								{
									OFFSET 0.000000 0.000000 0.000000
									CHANNELS 3 Zrotation Yrotation Xrotation
									JOINT LeftHandIndex1
									{
										OFFSET 0.715260 -0.000000 -0.000000
										CHANNELS 3 Zrotation Yrotation Xrotation
										End Site
										{
											OFFSET 0.000000 0.000000 0.000000
										}
									}
								}
								JOINT LThumb
								{
									OFFSET 0.000000 0.000000 0.000000
									CHANNELS 3 Zrotation Yrotation Xrotation
									End Site
									{
										OFFSET 0.000000 0.000000 0.000000
									}
								}
							}
						}
					}
				}
				JOINT RightShoulder
				{
					OFFSET 0.000000 0.000000 0.000000
					CHANNELS 3 Zrotation Yrotation Xrotation
					JOINT RightArm
					{
						OFFSET -3.136600 1.374050 -0.404650
						CHANNELS 3 Zrotation Yrotation Xrotation
						JOINT RightForeArm
						{
							OFFSET -5.241900 -0.000000 -0.000000
							CHANNELS 3 Zrotation Yrotation Xrotation
							JOINT RightHand
							{
								OFFSET -3.444170 -0.000000 -0.000000
								CHANNELS 3 Zrotation Yrotation Xrotation
								JOINT RightFingerBase
								{
									OFFSET 0.000000 0.000000 0.000000
									CHANNELS 3 Zrotation Yrotation Xrotation
									JOINT RightHandIndex1
									{
										OFFSET -0.622530 -0.000000 -0.000000
										CHANNELS 3 Zrotation Yrotation Xrotation
										End Site
										{
											OFFSET 0.000000 0.000000 0.000000
										}
									}
								}
								JOINT RThumb
								{
									OFFSET 0.000000 0.000000 0.000000
									CHANNELS 3 Zrotation Yrotation Xrotation
									End Site
									{
										OFFSET 0.000000 0.000000 0.000000
									}
								}
							}
						}
					}
				}
			}
		}
	}
}
MOTION
Frames: 9
Frame Time: 0.008333
-2.901989 17.384426 16.844710 -179.002114 15.780969 -178.188249 -2.948802 -2.059689 0.966013 -14.004913 16.055408 -15.873223 2.117477 12.054173 33.330600 0.059282 2.656987 -8.537373 0.034800 1.204000 3.310200 -0.525431 2.048186 -3.037588 24.743190 -31.986940 -85.938773 -31.533259 -15.982109 125.298792 -2.262683 -3.147336 30.216377 -1.897800 -8.649900 24.706200 -2.760795 1.173186 15.920845 3.211129 1.288755 -2.145676 0.564118 1.142020 -14.344485 -16.727298 -14.342202 -13.897587 15.259891 -17.212699 9.068863 2.706000 -7.694300 7.557300 3.477245 -1.322794 -1.155120 -15.467726 2.650134 45.952591 135.406393 -50.891081 -100.666264 -0.141777 -0.385193 -12.516681 4.536072 5.684350 0.500900 -7.125000 0.000000 0.000000 -18.180400 35.505900 4.426200 1.751690 3.818361 1.012684 15.114128 6.637611 11.816480 -29.775292 38.894626 -11.425769 0.064590 -0.087934 -9.953376 -12.660850 4.120590 -0.950800 7.125000 0.000000 0.000000 10.478000 -25.636700 4.992300 
-2.891472 17.404420 16.834308 -178.829848 15.591120 -177.857180 -2.905589 -2.093633 0.933058 -13.880633 16.384196 -16.396088 2.175975 12.083131 33.495362 0.118396 2.346909 -8.013336 0.030900 1.135400 3.121500 -0.591725 2.104513 -3.078991 23.546315 -30.627385 -83.283501 -30.719876 -16.575122 122.346263 -1.948031 -2.793409 28.465413 -1.929100 -8.716700 24.913200 -2.638527 0.989609 15.663787 3.322709 1.077102 -2.328977 0.619498 1.028792 -14.284376 -16.790783 -14.361440 -14.024279 15.035645 -17.221650 9.515536 2.640800 -7.677600 7.681600 3.487441 -1.300641 -1.111082 -14.996232 2.394064 46.343134 136.563369 -50.209927 -101.455062 -0.017313 -0.362845 -13.078899 2.809646 6.145941 0.329300 -7.125000 0.000000 0.000000 -19.772400 35.838800 4.683000 1.756877 3.806890 1.034187 15.118366 6.616989 11.707400 -28.586200 37.872904 -10.642863 0.021005 -0.042466 -10.053227 -10.093527 3.851757 -0.694200 7.125000 0.000000 0.000000 12.447900 -25.985100 5.866900 
-2.878528 17.424530 16.824832 -178.680297 15.399821 -177.530665 -2.860129 -2.131274 0.895996 -13.768886 16.788149 -16.980972 2.250634 12.126475 33.717420 0.190854 1.979051 -7.428193 0.024800 1.016800 2.795100 -0.647163 2.168859 -3.122105 22.432886 -29.259008 -80.607035 -29.826674 -17.163874 119.180427 -1.642846 -2.635190 26.723432 -1.978000 -8.820200 25.234400 -2.537218 0.812691 15.410768 3.438268 0.871301 -2.498799 0.682821 0.919745 -14.213637 -16.879849 -14.374408 -14.143944 14.853571 -17.214674 9.890858 2.592600 -7.658400 7.790400 3.494397 -1.280746 -1.067613 -14.531278 2.088556 46.703660 137.581374 -49.585179 -102.145323 0.093288 -0.340101 -13.579376 1.273291 6.531388 0.151300 -7.125000 0.000000 0.000000 -21.184900 36.100300 4.912500 1.764516 3.794749 1.053580 15.079769 6.649206 11.448921 -27.346783 36.770361 -9.857337 -0.019827 -0.004075 -9.915374 -7.906536 3.716201 -0.514500 7.125000 0.000000 0.000000 14.118000 -26.172500 6.634400 
-2.862810 17.443714 16.816164 -178.560691 15.202420 -177.214089 -2.811478 -2.171762 0.853919 -13.670521 17.258014 -17.627284 2.345096 12.189358 34.013447 0.280747 1.537322 -6.782605 0.015900 0.815200 2.240400 -0.690029 2.239830 -3.165551 21.399267 -27.917146 -77.926291 -28.855778 -17.734143 115.815469 -1.344891 -2.718482 25.015240 -2.043600 -8.956200 25.658400 -2.465445 0.644438 15.160333 3.553002 0.672402 -2.644650 0.754860 0.815662 -14.123355 -16.984856 -14.391631 -14.277533 14.710030 -17.204574 10.197720 2.556400 -7.641700 7.887700 3.497876 -1.261495 -1.025018 -14.076034 1.734118 47.017340 138.469462 -49.019922 -102.745741 0.184596 -0.315526 -13.997099 -0.016706 6.789100 -0.014900 -7.125000 0.000000 0.000000 -22.351000 36.246700 5.132900 1.774515 3.782196 1.071688 15.006450 6.710940 11.070857 -26.074874 35.597491 -9.082080 -0.056319 0.021633 -9.381110 -6.232044 3.793620 -0.407200 7.125000 0.000000 0.000000 15.374500 -26.126100 7.282900 
-2.844088 17.460935 16.808536 -178.474356 14.993045 -176.914514 -2.758363 -2.213770 0.806196 -13.582274 17.793186 -18.335126 2.463219 12.275528 34.398047 0.393499 0.997704 -6.072114 0.006100 0.504300 1.385600 -0.719340 2.315413 -3.208088 20.450824 -26.624869 -75.251517 -27.808834 -18.272699 112.267533 -1.051433 -3.031562 23.354490 -2.085400 -9.041800 25.926200 -2.429182 0.482483 14.918525 3.659793 0.475574 -2.766666 0.833931 0.714623 -14.015326 -17.098878 -14.407376 -14.389738 14.627688 -17.191853 10.401970 2.539500 -7.629000 7.958900 3.498861 -1.244134 -0.983845 -13.628937 1.342523 47.285207 139.239294 -48.512923 -103.266347 0.255279 -0.288733 -14.342807 -1.047985 6.904194 -0.154400 -7.125000 0.000000 0.000000 -23.253400 36.271100 5.355400 1.787304 3.767007 1.087960 14.921232 6.788426 10.597084 -24.785258 34.363717 -8.325994 -0.088460 0.030909 -8.339231 -5.116747 4.153542 -0.361700 7.125000 0.000000 0.000000 16.172700 -25.788700 7.824000 
-2.821898 17.475843 16.801948 -178.416558 14.768109 -176.638826 -2.698910 -2.255219 0.752307 -13.494704 18.389842 -19.100519 2.609077 12.388899 34.887103 0.534242 0.336958 -5.299016 0.000200 0.093600 0.257300 -0.734472 2.393854 -3.248211 19.580924 -25.391748 -72.576316 -26.689311 -18.766805 108.550317 -0.753490 -3.608064 21.749160 -2.108700 -9.088900 26.073800 -2.427515 0.322984 14.693195 3.755767 0.275854 -2.860435 0.918002 0.613742 -13.891260 -17.214608 -14.424932 -14.491099 14.611970 -17.181547 10.511049 2.541400 -7.620500 8.007800 3.498257 -1.227232 -0.944046 -13.178951 0.931328 47.510283 139.919493 -48.051487 -103.726797 0.305405 -0.262771 -14.637465 -1.807276 6.915866 -0.257000 -7.125000 0.000000 0.000000 -23.891800 36.214800 5.561300 1.802380 3.749800 1.102761 14.840432 6.871236 10.050499 -23.501569 33.090303 -7.602382 -0.115570 0.024439 -6.771740 -4.541889 4.740677 -0.364000 7.125000 0.000000 0.000000 16.535900 -25.216700 8.245800 
-2.795779 17.487631 16.796517 -178.382948 14.527227 -176.395554 -2.630899 -2.293701 0.691748 -13.397594 19.057809 -19.923844 2.788336 12.532880 35.497973 0.707282 -0.470633 -4.462875 0.003900 -0.405200 -1.113500 -0.734840 2.473471 -3.284522 18.793453 -24.218478 -69.887532 -25.497171 -19.205849 104.671916 -0.448229 -4.399740 20.213163 -2.094800 -9.060800 25.985800 -2.459234 0.165253 14.498629 3.836765 0.072068 -2.928281 1.003009 0.512139 -13.761805 -17.327717 -14.446586 -14.570622 14.668762 -17.180437 10.530141 2.562800 -7.618100 8.034100 3.496882 -1.210445 -0.905543 -12.724626 0.506831 47.706275 140.525792 -47.628715 -104.137937 0.338608 -0.238434 -14.898542 -2.338034 6.854068 -0.325200 -7.125000 0.000000 0.000000 -24.313700 36.106300 5.746100 1.819534 3.730463 1.116061 14.776872 6.949803 9.459976 -22.239196 31.793869 -6.919181 -0.139109 0.005009 -4.735574 -4.406324 5.494302 -0.408300 7.125000 0.000000 0.000000 16.554400 -24.471200 8.556600 
-2.765268 17.495490 16.792356 -178.368148 14.271189 -176.190157 -2.552054 -2.327149 0.623486 -13.284454 19.812832 -20.812646 3.006871 12.710364 36.246974 0.911183 -1.432792 -3.566933 0.023000 -0.979600 -2.692600 -0.719503 2.552779 -3.315165 18.087948 -23.094247 -67.178233 -24.235142 -19.578648 100.650684 -0.138348 -5.331607 18.770275 -2.035500 -8.939600 25.606400 -2.528706 0.008938 14.344233 3.905372 -0.136700 -2.973578 1.093415 0.409930 -13.635472 -17.444798 -14.472650 -14.619330 14.804117 -17.190342 10.467279 2.606800 -7.621900 8.039600 3.494895 -1.193493 -0.868419 -12.263433 0.079190 47.894329 141.060189 -47.246383 -104.502085 0.353159 -0.215620 -15.113050 -2.623423 6.706201 -0.355000 -7.125000 0.000000 0.000000 -24.501700 35.934000 5.911000 1.838891 3.709516 1.128009 14.728427 7.017650 8.860548 -21.009779 30.490148 -6.281545 -0.159621 -0.023784 -2.348285 -4.620151 6.320886 -0.493400 7.125000 0.000000 0.000000 16.312500 -23.641900 8.748600 
-2.729441 17.498611 16.789236 -178.366843 14.004252 -176.030723 -2.460364 -2.353189 0.546733 -13.151467 20.672240 -21.771571 3.271123 12.923715 37.150675 1.140535 -2.545869 -2.623346 0.060100 -1.582100 -4.351900 -0.687486 2.630306 -3.338044 17.458106 -22.009288 -64.434414 -22.903792 -19.874947 96.498997 0.162777 -6.283332 17.464659 -1.921700 -8.701100 24.864800 -2.638553 -0.143152 14.237467 3.961662 -0.346999 -2.997807 1.189624 0.308828 -13.518894 -17.558102 -14.502511 -14.637487 14.999290 -17.211544 10.343659 2.667000 -7.631400 8.028400 3.492465 -1.176026 -0.831590 -11.787250 -0.353861 48.097134 141.538021 -46.896511 -104.829319 0.350524 -0.196829 -15.263379 -2.673505 6.510176 -0.350300 -7.125000 0.000000 0.000000 -24.478900 35.735700 6.034600 1.859913 3.686713 1.138446 14.698436 7.068316 8.290335 -19.823420 29.194708 -5.692758 -0.177546 -0.058442 0.242742 -5.088756 7.137301 -0.617000 7.125000 0.000000 0.000000 15.893400 -22.809400 8.823500 
